<mxfile host="app.diagrams.net" agent="Mozilla/5.0 (Windows NT 10.0; Win64; x64) AppleWebKit/537.36 (KHTML, like Gecko) Chrome/131.0.0.0 Safari/537.36" version="25.0.3">
  <diagram name="Page-1" id="yAvOY6v_R_DVjkY3Rf0n">
    <mxGraphModel dx="880" dy="1572" grid="1" gridSize="10" guides="1" tooltips="1" connect="1" arrows="1" fold="1" page="1" pageScale="1" pageWidth="850" pageHeight="1100" math="0" shadow="0">
      <root>
        <mxCell id="0" />
        <mxCell id="1" parent="0" />
        <mxCell id="ksr5oNeSZPBKfkLmr4XX-3" value="" style="edgeStyle=orthogonalEdgeStyle;rounded=0;orthogonalLoop=1;jettySize=auto;html=1;" edge="1" parent="1" source="ksr5oNeSZPBKfkLmr4XX-1" target="ksr5oNeSZPBKfkLmr4XX-2">
          <mxGeometry relative="1" as="geometry" />
        </mxCell>
        <mxCell id="ksr5oNeSZPBKfkLmr4XX-1" value="SignIn/SignUP" style="ellipse;whiteSpace=wrap;html=1;" vertex="1" parent="1">
          <mxGeometry x="365" y="-1060" width="120" height="80" as="geometry" />
        </mxCell>
        <mxCell id="ksr5oNeSZPBKfkLmr4XX-2" value="DashBoard" style="rounded=1;whiteSpace=wrap;html=1;" vertex="1" parent="1">
          <mxGeometry x="365" y="-930" width="120" height="50" as="geometry" />
        </mxCell>
        <mxCell id="ksr5oNeSZPBKfkLmr4XX-10" value="AddNew Compain" style="whiteSpace=wrap;html=1;rounded=1;" vertex="1" parent="1">
          <mxGeometry x="440" y="-830" width="120" height="60" as="geometry" />
        </mxCell>
        <mxCell id="ksr5oNeSZPBKfkLmr4XX-14" value="Check History" style="rounded=1;whiteSpace=wrap;html=1;" vertex="1" parent="1">
          <mxGeometry x="290" y="-830" width="120" height="60" as="geometry" />
        </mxCell>
        <mxCell id="ksr5oNeSZPBKfkLmr4XX-23" value="" style="strokeWidth=2;html=1;shape=mxgraph.flowchart.annotation_2;align=left;labelPosition=right;pointerEvents=1;direction=south;" vertex="1" parent="1">
          <mxGeometry x="375" y="-880" width="100" height="50" as="geometry" />
        </mxCell>
      </root>
    </mxGraphModel>
  </diagram>
</mxfile>
